<svg xmlns="http://www.w3.org/2000/svg" version="1.1" xmlns:xlink="http://www.w3.org/1999/xlink" xmlns:svgjs="http://svgjs.dev/svgjs" width="1500" height="1631" viewBox="0 0 1500 1631"><g transform="matrix(1,0,0,1,-2.62657894736833,-2.6306451612903174)"><svg viewBox="0 0 228 248" data-background-color="#000000" preserveAspectRatio="xMidYMid meet" height="1631" width="1500" xmlns="http://www.w3.org/2000/svg" xmlns:xlink="http://www.w3.org/1999/xlink"><g id="tight-bounds" transform="matrix(1,0,0,1,0.3992399999999918,0.4000000000000057)"><svg viewBox="0 0 227.20152000000002 247.2" height="247.2" width="227.20152000000002"><rect width="227.20152000000002" height="247.2" fill="url(#40069156-c2f7-4b10-8259-5319de38b511)" mask="url(#84b08f26-067c-4bb7-b534-b8c622f47ffc)" data-fill-palette-color="tertiary"></rect><g><svg viewBox="0 0 227.20152000000002 247.2" height="247.2" width="227.20152000000002"><g><svg viewBox="0 0 227.20152000000002 247.2" height="247.2" width="227.20152000000002"><g id="textblocktransform"><svg viewBox="0 0 227.20152000000002 247.2" height="247.2" width="227.20152000000002" id="textblock"><g><svg viewBox="0 0 227.20152000000002 247.2" height="247.2" width="227.20152000000002"><rect width="227.20152000000002" height="247.2" x="0" y="0" opacity="1" fill="url(#40069156-c2f7-4b10-8259-5319de38b511)" data-fill-palette-color="tertiary"></rect><g transform="matrix(1,0,0,1,23.607599999999998,23.607599999999998)"><svg width="179.98632000000003" viewBox="2.15 -26 25.200000000000003 28" height="199.9848" data-palette-color="#000000"><path d="M10.35 2L10.35 2Q4.3-0.4 2.15-4.1L2.15-4.1Q2.15-9.6 5.4-16.1 8.65-22.6 12.7-24.7L12.7-24.7Q14.4-24.7 16.5-24.5L16.5-24.5Q22.05-24.8 26-25.7L26-25.7 27.35-26Q25.35-19.4 24.15-11.95L24.15-11.95Q19.75-13.9 16.55-17.3L16.55-17.3Q12.7-11.65 11.9-4.9L11.9-4.9 25.2-8.45Q25.2-7.45 24.23-5.73 23.25-4 21.85-2.73 20.45-1.45 17.43-0.08 14.4 1.3 10.35 2Z" opacity="1" transform="matrix(1,0,0,1,0,0)" fill="#000000" class="wordmark-text-0" data-fill-palette-color="quaternary" id="text-0"></path></svg></g></svg></g></svg></g></svg></g><g></g></svg></g><defs></defs><mask id="84b08f26-067c-4bb7-b534-b8c622f47ffc"><g id="SvgjsG3902"><svg viewBox="0 0 227.20152000000002 247.2" height="247.2" width="227.20152000000002"><g><svg viewBox="0 0 227.20152000000002 247.2" height="247.2" width="227.20152000000002"><g><svg viewBox="0 0 227.20152000000002 247.2" height="247.2" width="227.20152000000002"><g id="SvgjsG3901"><svg viewBox="0 0 227.20152000000002 247.2" height="247.2" width="227.20152000000002" id="SvgjsSvg3900"><g><svg viewBox="0 0 227.20152000000002 247.2" height="247.2" width="227.20152000000002"><rect width="227.20152000000002" height="247.2" x="0" y="0" opacity="1" fill="white"></rect><g transform="matrix(1,0,0,1,23.607599999999998,23.607599999999998)"><svg width="179.98632000000003" viewBox="2.15 -26 25.200000000000003 28" height="199.9848" data-palette-color="#000000"><path d="M10.35 2L10.35 2Q4.3-0.4 2.15-4.1L2.15-4.1Q2.15-9.6 5.4-16.1 8.65-22.6 12.7-24.7L12.7-24.7Q14.4-24.7 16.5-24.5L16.5-24.5Q22.05-24.8 26-25.7L26-25.7 27.35-26Q25.35-19.4 24.15-11.95L24.15-11.95Q19.75-13.9 16.55-17.3L16.55-17.3Q12.7-11.65 11.9-4.9L11.9-4.9 25.2-8.45Q25.2-7.45 24.23-5.73 23.25-4 21.85-2.73 20.45-1.45 17.43-0.08 14.4 1.3 10.35 2Z" opacity="1" transform="matrix(1,0,0,1,0,0)" fill="black" class="wordmark-text-0" id="SvgjsPath3899"></path></svg></g></svg></g></svg></g></svg></g><g></g></svg></g><defs><mask></mask></defs></svg><rect width="227.20152000000002" height="247.2" fill="black" stroke="none" visibility="hidden"></rect></g></mask><linearGradient x1="0" x2="1" y1="0.578" y2="0.595" id="40069156-c2f7-4b10-8259-5319de38b511"><stop stop-color="#dede50" offset="0"></stop><stop stop-color="#559c49" offset="1"></stop></linearGradient></svg><rect width="227.20152000000002" height="247.2" fill="none" stroke="none" visibility="hidden"></rect></g></svg></g></svg>